G75*
G70*
%OFA0B0*%
%FSLAX24Y24*%
%IPPOS*%
%LPD*%
%AMOC8*
5,1,8,0,0,1.08239X$1,22.5*
%
%ADD10C,0.0050*%
%ADD11R,0.2900X0.1750*%
%ADD12R,0.3400X0.0145*%
%ADD13C,0.0004*%
%ADD14C,0.0000*%
%ADD15C,0.0080*%
%ADD16C,0.0040*%
D10*
X006931Y001076D02*
X006931Y001526D01*
X006933Y001560D01*
X006939Y001593D01*
X006948Y001625D01*
X006961Y001656D01*
X006977Y001686D01*
X006996Y001713D01*
X007019Y001738D01*
X007044Y001761D01*
X007071Y001780D01*
X007101Y001796D01*
X007132Y001809D01*
X007164Y001818D01*
X007197Y001824D01*
X007231Y001826D01*
X007261Y001828D01*
X007291Y001833D01*
X007320Y001842D01*
X007347Y001855D01*
X007373Y001870D01*
X007397Y001889D01*
X007418Y001910D01*
X007437Y001934D01*
X007452Y001960D01*
X007465Y001987D01*
X007474Y002016D01*
X007479Y002046D01*
X007481Y002076D01*
X007481Y003226D01*
X007481Y003225D02*
X007482Y003261D01*
X007486Y003295D01*
X007494Y003330D01*
X007505Y003363D01*
X007520Y003395D01*
X007537Y003426D01*
X007558Y003454D01*
X007581Y003481D01*
X007606Y003505D01*
X007634Y003526D01*
X007664Y003545D01*
X007695Y003561D01*
X007728Y003573D01*
X007762Y003583D01*
X007796Y003588D01*
X007831Y003591D01*
X011831Y003591D01*
X011832Y003591D02*
X011869Y003588D01*
X011906Y003582D01*
X011942Y003571D01*
X011976Y003557D01*
X012009Y003539D01*
X012040Y003518D01*
X012069Y003494D01*
X012095Y003467D01*
X012118Y003437D01*
X012138Y003405D01*
X012154Y003372D01*
X012167Y003336D01*
X012176Y003300D01*
X012181Y003263D01*
X012182Y003225D01*
X012181Y003226D02*
X012181Y001136D01*
X012182Y001097D01*
X012178Y001058D01*
X012171Y001020D01*
X012161Y000983D01*
X012146Y000947D01*
X012129Y000912D01*
X012107Y000880D01*
X012083Y000849D01*
X012056Y000821D01*
X012026Y000796D01*
X011994Y000774D01*
X011960Y000755D01*
X011925Y000740D01*
X011888Y000728D01*
X011850Y000720D01*
X011811Y000716D01*
X007326Y000716D01*
X007327Y000715D02*
X007289Y000716D01*
X007253Y000719D01*
X007216Y000727D01*
X007181Y000737D01*
X007146Y000752D01*
X007114Y000769D01*
X007083Y000790D01*
X007054Y000814D01*
X007028Y000840D01*
X007005Y000869D01*
X006984Y000900D01*
X006967Y000932D01*
X006953Y000967D01*
X006942Y001002D01*
X006935Y001039D01*
X006931Y001075D01*
D11*
X009831Y002426D03*
D12*
X009811Y000946D03*
D13*
X008229Y001435D02*
X008229Y001668D01*
X008227Y001686D01*
X008222Y001703D01*
X008214Y001720D01*
X008203Y001734D01*
X008190Y001746D01*
X008175Y001756D01*
X008158Y001762D01*
X008140Y001766D01*
X008122Y001766D01*
X008104Y001762D01*
X008087Y001756D01*
X008072Y001746D01*
X008059Y001734D01*
X008048Y001720D01*
X008040Y001703D01*
X008035Y001686D01*
X008033Y001668D01*
X008033Y001435D01*
X008035Y001417D01*
X008040Y001400D01*
X008048Y001383D01*
X008059Y001369D01*
X008072Y001357D01*
X008087Y001347D01*
X008104Y001341D01*
X008122Y001337D01*
X008140Y001337D01*
X008158Y001341D01*
X008175Y001347D01*
X008190Y001357D01*
X008203Y001369D01*
X008214Y001383D01*
X008222Y001400D01*
X008227Y001417D01*
X008229Y001435D01*
X007735Y002336D02*
X007735Y002780D01*
X007734Y002780D02*
X007735Y002811D01*
X007732Y002842D01*
X007726Y002873D01*
X007716Y002903D01*
X007702Y002931D01*
X007686Y002957D01*
X007666Y002981D01*
X007643Y003003D01*
X007618Y003022D01*
X007591Y003037D01*
X007562Y003049D01*
X007532Y003058D01*
X007501Y003063D01*
X007470Y003064D01*
X007439Y003061D01*
X007408Y003055D01*
X007378Y003045D01*
X007350Y003031D01*
X007324Y003015D01*
X007300Y002995D01*
X007278Y002972D01*
X007259Y002947D01*
X007244Y002920D01*
X007232Y002891D01*
X007223Y002861D01*
X007218Y002830D01*
X007218Y002386D01*
X007217Y002355D01*
X007220Y002324D01*
X007226Y002293D01*
X007236Y002263D01*
X007250Y002235D01*
X007266Y002209D01*
X007286Y002185D01*
X007309Y002163D01*
X007334Y002144D01*
X007361Y002129D01*
X007390Y002117D01*
X007420Y002108D01*
X007451Y002103D01*
X007482Y002102D01*
X007513Y002105D01*
X007544Y002111D01*
X007574Y002121D01*
X007602Y002135D01*
X007628Y002151D01*
X007652Y002171D01*
X007674Y002194D01*
X007693Y002219D01*
X007708Y002246D01*
X007720Y002275D01*
X007729Y002305D01*
X007734Y002336D01*
X008033Y003085D02*
X008033Y003318D01*
X008035Y003336D01*
X008040Y003353D01*
X008048Y003370D01*
X008059Y003384D01*
X008072Y003396D01*
X008087Y003406D01*
X008104Y003412D01*
X008122Y003416D01*
X008140Y003416D01*
X008158Y003412D01*
X008175Y003406D01*
X008190Y003396D01*
X008203Y003384D01*
X008214Y003370D01*
X008222Y003353D01*
X008227Y003336D01*
X008229Y003318D01*
X008229Y003085D01*
X008227Y003067D01*
X008222Y003050D01*
X008214Y003033D01*
X008203Y003019D01*
X008190Y003007D01*
X008175Y002997D01*
X008158Y002991D01*
X008140Y002987D01*
X008122Y002987D01*
X008104Y002991D01*
X008087Y002997D01*
X008072Y003007D01*
X008059Y003019D01*
X008048Y003033D01*
X008040Y003050D01*
X008035Y003067D01*
X008033Y003085D01*
X011434Y003084D02*
X011434Y003317D01*
X011436Y003335D01*
X011441Y003352D01*
X011449Y003369D01*
X011460Y003383D01*
X011473Y003395D01*
X011488Y003405D01*
X011505Y003411D01*
X011523Y003415D01*
X011541Y003415D01*
X011559Y003411D01*
X011576Y003405D01*
X011591Y003395D01*
X011604Y003383D01*
X011615Y003369D01*
X011623Y003352D01*
X011628Y003335D01*
X011630Y003317D01*
X011630Y003084D01*
X011628Y003066D01*
X011623Y003049D01*
X011615Y003032D01*
X011604Y003018D01*
X011591Y003006D01*
X011576Y002996D01*
X011559Y002990D01*
X011541Y002986D01*
X011523Y002986D01*
X011505Y002990D01*
X011488Y002996D01*
X011473Y003006D01*
X011460Y003018D01*
X011449Y003032D01*
X011441Y003049D01*
X011436Y003066D01*
X011434Y003084D01*
X011928Y002830D02*
X011928Y002386D01*
X011927Y002355D01*
X011930Y002324D01*
X011936Y002293D01*
X011946Y002263D01*
X011960Y002235D01*
X011976Y002209D01*
X011996Y002185D01*
X012019Y002163D01*
X012044Y002144D01*
X012071Y002129D01*
X012100Y002117D01*
X012130Y002108D01*
X012161Y002103D01*
X012192Y002102D01*
X012223Y002105D01*
X012254Y002111D01*
X012284Y002121D01*
X012312Y002135D01*
X012338Y002151D01*
X012362Y002171D01*
X012384Y002194D01*
X012403Y002219D01*
X012418Y002246D01*
X012430Y002275D01*
X012439Y002305D01*
X012444Y002336D01*
X012445Y002336D02*
X012445Y002780D01*
X012444Y002780D02*
X012445Y002811D01*
X012442Y002842D01*
X012436Y002873D01*
X012426Y002903D01*
X012412Y002931D01*
X012396Y002957D01*
X012376Y002981D01*
X012353Y003003D01*
X012328Y003022D01*
X012301Y003037D01*
X012272Y003049D01*
X012242Y003058D01*
X012211Y003063D01*
X012180Y003064D01*
X012149Y003061D01*
X012118Y003055D01*
X012088Y003045D01*
X012060Y003031D01*
X012034Y003015D01*
X012010Y002995D01*
X011988Y002972D01*
X011969Y002947D01*
X011954Y002920D01*
X011942Y002891D01*
X011933Y002861D01*
X011928Y002830D01*
D14*
X011447Y001672D02*
X011449Y001690D01*
X011454Y001707D01*
X011463Y001722D01*
X011475Y001735D01*
X011489Y001746D01*
X011506Y001753D01*
X011523Y001757D01*
X011541Y001757D01*
X011558Y001753D01*
X011574Y001746D01*
X011589Y001735D01*
X011601Y001722D01*
X011610Y001707D01*
X011615Y001690D01*
X011617Y001672D01*
X011615Y001654D01*
X011610Y001637D01*
X011601Y001622D01*
X011589Y001609D01*
X011575Y001598D01*
X011558Y001591D01*
X011541Y001587D01*
X011523Y001587D01*
X011506Y001591D01*
X011490Y001598D01*
X011475Y001609D01*
X011463Y001622D01*
X011454Y001637D01*
X011449Y001654D01*
X011447Y001672D01*
X011447Y001632D02*
X011449Y001650D01*
X011454Y001667D01*
X011463Y001682D01*
X011475Y001695D01*
X011489Y001706D01*
X011506Y001713D01*
X011523Y001717D01*
X011541Y001717D01*
X011558Y001713D01*
X011574Y001706D01*
X011589Y001695D01*
X011601Y001682D01*
X011610Y001667D01*
X011615Y001650D01*
X011617Y001632D01*
X011615Y001614D01*
X011610Y001597D01*
X011601Y001582D01*
X011589Y001569D01*
X011575Y001558D01*
X011558Y001551D01*
X011541Y001547D01*
X011523Y001547D01*
X011506Y001551D01*
X011490Y001558D01*
X011475Y001569D01*
X011463Y001582D01*
X011454Y001597D01*
X011449Y001614D01*
X011447Y001632D01*
X011447Y001592D02*
X011449Y001610D01*
X011454Y001627D01*
X011463Y001642D01*
X011475Y001655D01*
X011489Y001666D01*
X011506Y001673D01*
X011523Y001677D01*
X011541Y001677D01*
X011558Y001673D01*
X011574Y001666D01*
X011589Y001655D01*
X011601Y001642D01*
X011610Y001627D01*
X011615Y001610D01*
X011617Y001592D01*
X011615Y001574D01*
X011610Y001557D01*
X011601Y001542D01*
X011589Y001529D01*
X011575Y001518D01*
X011558Y001511D01*
X011541Y001507D01*
X011523Y001507D01*
X011506Y001511D01*
X011490Y001518D01*
X011475Y001529D01*
X011463Y001542D01*
X011454Y001557D01*
X011449Y001574D01*
X011447Y001592D01*
X011447Y001552D02*
X011449Y001570D01*
X011454Y001587D01*
X011463Y001602D01*
X011475Y001615D01*
X011489Y001626D01*
X011506Y001633D01*
X011523Y001637D01*
X011541Y001637D01*
X011558Y001633D01*
X011574Y001626D01*
X011589Y001615D01*
X011601Y001602D01*
X011610Y001587D01*
X011615Y001570D01*
X011617Y001552D01*
X011615Y001534D01*
X011610Y001517D01*
X011601Y001502D01*
X011589Y001489D01*
X011575Y001478D01*
X011558Y001471D01*
X011541Y001467D01*
X011523Y001467D01*
X011506Y001471D01*
X011490Y001478D01*
X011475Y001489D01*
X011463Y001502D01*
X011454Y001517D01*
X011449Y001534D01*
X011447Y001552D01*
X011447Y001512D02*
X011449Y001530D01*
X011454Y001547D01*
X011463Y001562D01*
X011475Y001575D01*
X011489Y001586D01*
X011506Y001593D01*
X011523Y001597D01*
X011541Y001597D01*
X011558Y001593D01*
X011574Y001586D01*
X011589Y001575D01*
X011601Y001562D01*
X011610Y001547D01*
X011615Y001530D01*
X011617Y001512D01*
X011615Y001494D01*
X011610Y001477D01*
X011601Y001462D01*
X011589Y001449D01*
X011575Y001438D01*
X011558Y001431D01*
X011541Y001427D01*
X011523Y001427D01*
X011506Y001431D01*
X011490Y001438D01*
X011475Y001449D01*
X011463Y001462D01*
X011454Y001477D01*
X011449Y001494D01*
X011447Y001512D01*
X011447Y001472D02*
X011449Y001490D01*
X011454Y001507D01*
X011463Y001522D01*
X011475Y001535D01*
X011489Y001546D01*
X011506Y001553D01*
X011523Y001557D01*
X011541Y001557D01*
X011558Y001553D01*
X011574Y001546D01*
X011589Y001535D01*
X011601Y001522D01*
X011610Y001507D01*
X011615Y001490D01*
X011617Y001472D01*
X011615Y001454D01*
X011610Y001437D01*
X011601Y001422D01*
X011589Y001409D01*
X011575Y001398D01*
X011558Y001391D01*
X011541Y001387D01*
X011523Y001387D01*
X011506Y001391D01*
X011490Y001398D01*
X011475Y001409D01*
X011463Y001422D01*
X011454Y001437D01*
X011449Y001454D01*
X011447Y001472D01*
X011447Y001432D02*
X011449Y001450D01*
X011454Y001467D01*
X011463Y001482D01*
X011475Y001495D01*
X011489Y001506D01*
X011506Y001513D01*
X011523Y001517D01*
X011541Y001517D01*
X011558Y001513D01*
X011574Y001506D01*
X011589Y001495D01*
X011601Y001482D01*
X011610Y001467D01*
X011615Y001450D01*
X011617Y001432D01*
X011615Y001414D01*
X011610Y001397D01*
X011601Y001382D01*
X011589Y001369D01*
X011575Y001358D01*
X011558Y001351D01*
X011541Y001347D01*
X011523Y001347D01*
X011506Y001351D01*
X011490Y001358D01*
X011475Y001369D01*
X011463Y001382D01*
X011454Y001397D01*
X011449Y001414D01*
X011447Y001432D01*
X010844Y001759D02*
X010846Y001781D01*
X010852Y001802D01*
X010861Y001821D01*
X010873Y001839D01*
X010889Y001855D01*
X010906Y001867D01*
X010926Y001876D01*
X010947Y001882D01*
X010969Y001884D01*
X010991Y001882D01*
X011012Y001876D01*
X011031Y001867D01*
X011049Y001855D01*
X011065Y001839D01*
X011077Y001821D01*
X011086Y001802D01*
X011092Y001781D01*
X011094Y001759D01*
X011092Y001737D01*
X011086Y001716D01*
X011077Y001697D01*
X011065Y001679D01*
X011049Y001663D01*
X011032Y001651D01*
X011012Y001642D01*
X010991Y001636D01*
X010969Y001634D01*
X010947Y001636D01*
X010926Y001642D01*
X010906Y001651D01*
X010889Y001663D01*
X010873Y001679D01*
X010861Y001696D01*
X010852Y001716D01*
X010846Y001737D01*
X010844Y001759D01*
X010776Y000729D02*
X010778Y000750D01*
X010784Y000770D01*
X010793Y000790D01*
X010805Y000807D01*
X010820Y000821D01*
X010838Y000833D01*
X010858Y000841D01*
X010878Y000846D01*
X010899Y000847D01*
X010920Y000844D01*
X010940Y000838D01*
X010959Y000827D01*
X010976Y000814D01*
X010989Y000798D01*
X011000Y000780D01*
X011008Y000760D01*
X011012Y000740D01*
X011012Y000718D01*
X011008Y000698D01*
X011000Y000678D01*
X010989Y000660D01*
X010976Y000644D01*
X010959Y000631D01*
X010940Y000620D01*
X010920Y000614D01*
X010899Y000611D01*
X010878Y000612D01*
X010858Y000617D01*
X010838Y000625D01*
X010820Y000637D01*
X010805Y000651D01*
X010793Y000668D01*
X010784Y000688D01*
X010778Y000708D01*
X010776Y000729D01*
X011228Y000729D02*
X011230Y000750D01*
X011236Y000770D01*
X011245Y000790D01*
X011257Y000807D01*
X011272Y000821D01*
X011290Y000833D01*
X011310Y000841D01*
X011330Y000846D01*
X011351Y000847D01*
X011372Y000844D01*
X011392Y000838D01*
X011411Y000827D01*
X011428Y000814D01*
X011441Y000798D01*
X011452Y000780D01*
X011460Y000760D01*
X011464Y000740D01*
X011464Y000718D01*
X011460Y000698D01*
X011452Y000678D01*
X011441Y000660D01*
X011428Y000644D01*
X011411Y000631D01*
X011392Y000620D01*
X011372Y000614D01*
X011351Y000611D01*
X011330Y000612D01*
X011310Y000617D01*
X011290Y000625D01*
X011272Y000637D01*
X011257Y000651D01*
X011245Y000668D01*
X011236Y000688D01*
X011230Y000708D01*
X011228Y000729D01*
X010031Y000729D02*
X010033Y000750D01*
X010039Y000770D01*
X010048Y000790D01*
X010060Y000807D01*
X010075Y000821D01*
X010093Y000833D01*
X010113Y000841D01*
X010133Y000846D01*
X010154Y000847D01*
X010175Y000844D01*
X010195Y000838D01*
X010214Y000827D01*
X010231Y000814D01*
X010244Y000798D01*
X010255Y000780D01*
X010263Y000760D01*
X010267Y000740D01*
X010267Y000718D01*
X010263Y000698D01*
X010255Y000678D01*
X010244Y000660D01*
X010231Y000644D01*
X010214Y000631D01*
X010195Y000620D01*
X010175Y000614D01*
X010154Y000611D01*
X010133Y000612D01*
X010113Y000617D01*
X010093Y000625D01*
X010075Y000637D01*
X010060Y000651D01*
X010048Y000668D01*
X010039Y000688D01*
X010033Y000708D01*
X010031Y000729D01*
X009054Y000729D02*
X009056Y000750D01*
X009062Y000770D01*
X009071Y000790D01*
X009083Y000807D01*
X009098Y000821D01*
X009116Y000833D01*
X009136Y000841D01*
X009156Y000846D01*
X009177Y000847D01*
X009198Y000844D01*
X009218Y000838D01*
X009237Y000827D01*
X009254Y000814D01*
X009267Y000798D01*
X009278Y000780D01*
X009286Y000760D01*
X009290Y000740D01*
X009290Y000718D01*
X009286Y000698D01*
X009278Y000678D01*
X009267Y000660D01*
X009254Y000644D01*
X009237Y000631D01*
X009218Y000620D01*
X009198Y000614D01*
X009177Y000611D01*
X009156Y000612D01*
X009136Y000617D01*
X009116Y000625D01*
X009098Y000637D01*
X009083Y000651D01*
X009071Y000668D01*
X009062Y000688D01*
X009056Y000708D01*
X009054Y000729D01*
X008601Y000729D02*
X008603Y000750D01*
X008609Y000770D01*
X008618Y000790D01*
X008630Y000807D01*
X008645Y000821D01*
X008663Y000833D01*
X008683Y000841D01*
X008703Y000846D01*
X008724Y000847D01*
X008745Y000844D01*
X008765Y000838D01*
X008784Y000827D01*
X008801Y000814D01*
X008814Y000798D01*
X008825Y000780D01*
X008833Y000760D01*
X008837Y000740D01*
X008837Y000718D01*
X008833Y000698D01*
X008825Y000678D01*
X008814Y000660D01*
X008801Y000644D01*
X008784Y000631D01*
X008765Y000620D01*
X008745Y000614D01*
X008724Y000611D01*
X008703Y000612D01*
X008683Y000617D01*
X008663Y000625D01*
X008645Y000637D01*
X008630Y000651D01*
X008618Y000668D01*
X008609Y000688D01*
X008603Y000708D01*
X008601Y000729D01*
X008148Y000729D02*
X008150Y000750D01*
X008156Y000770D01*
X008165Y000790D01*
X008177Y000807D01*
X008192Y000821D01*
X008210Y000833D01*
X008230Y000841D01*
X008250Y000846D01*
X008271Y000847D01*
X008292Y000844D01*
X008312Y000838D01*
X008331Y000827D01*
X008348Y000814D01*
X008361Y000798D01*
X008372Y000780D01*
X008380Y000760D01*
X008384Y000740D01*
X008384Y000718D01*
X008380Y000698D01*
X008372Y000678D01*
X008361Y000660D01*
X008348Y000644D01*
X008331Y000631D01*
X008312Y000620D01*
X008292Y000614D01*
X008271Y000611D01*
X008250Y000612D01*
X008230Y000617D01*
X008210Y000625D01*
X008192Y000637D01*
X008177Y000651D01*
X008165Y000668D01*
X008156Y000688D01*
X008150Y000708D01*
X008148Y000729D01*
X008569Y001759D02*
X008571Y001781D01*
X008577Y001802D01*
X008586Y001821D01*
X008598Y001839D01*
X008614Y001855D01*
X008631Y001867D01*
X008651Y001876D01*
X008672Y001882D01*
X008694Y001884D01*
X008716Y001882D01*
X008737Y001876D01*
X008756Y001867D01*
X008774Y001855D01*
X008790Y001839D01*
X008802Y001821D01*
X008811Y001802D01*
X008817Y001781D01*
X008819Y001759D01*
X008817Y001737D01*
X008811Y001716D01*
X008802Y001697D01*
X008790Y001679D01*
X008774Y001663D01*
X008757Y001651D01*
X008737Y001642D01*
X008716Y001636D01*
X008694Y001634D01*
X008672Y001636D01*
X008651Y001642D01*
X008631Y001651D01*
X008614Y001663D01*
X008598Y001679D01*
X008586Y001696D01*
X008577Y001716D01*
X008571Y001737D01*
X008569Y001759D01*
D15*
X008131Y002056D02*
X008131Y002765D01*
X011532Y002765D02*
X011532Y002056D01*
D16*
X007495Y001610D02*
X007495Y000822D01*
X007178Y000822D01*
X007178Y001610D01*
X007495Y001610D01*
M02*
