%
M48
M72
T01C0.0120
T02C0.0160
T03C0.0170
T04C0.0236
T05C0.0250
%
T01
X7336Y1591
X8931Y2301
X9276Y2301
X9611Y1856
X9831Y2126
X10231Y2126
X10781Y2926
X11131Y2926
X8881Y2926
X8531Y2926
T02
X10856Y2101
T03
X11532Y1672
X11532Y1632
X11532Y1592
X11532Y1552
X11532Y1512
X11532Y1472
X11532Y1432
T04
X11346Y729
X10894Y729
X10149Y729
X9172Y729
X8719Y729
X8266Y729
T05
X8694Y1759
X10969Y1759
M30
