G75*
G70*
%OFA0B0*%
%FSLAX24Y24*%
%IPPOS*%
%LPD*%
%AMOC8*
5,1,8,0,0,1.08239X$1,22.5*
%
%ADD10C,0.0050*%
%ADD11R,0.0240X0.0700*%
%ADD12R,0.0600X0.0350*%
%ADD13C,0.0004*%
%ADD14C,0.0900*%
%ADD15C,0.0000*%
%ADD16C,0.0394*%
%ADD17C,0.0240*%
%ADD18C,0.0200*%
%ADD19C,0.0100*%
%ADD20C,0.0220*%
%ADD21C,0.0080*%
%ADD22C,0.0280*%
%ADD23C,0.0160*%
%ADD24C,0.0140*%
%ADD25C,0.0320*%
D10*
X006831Y002226D02*
X006831Y003026D01*
X006835Y003068D01*
X006842Y003109D01*
X006852Y003150D01*
X006866Y003190D01*
X006884Y003228D01*
X006905Y003265D01*
X006929Y003299D01*
X006955Y003332D01*
X006985Y003362D01*
X007017Y003389D01*
X007051Y003413D01*
X007088Y003435D01*
X007126Y003453D01*
X007165Y003468D01*
X007206Y003479D01*
X007247Y003486D01*
X007289Y003490D01*
X007332Y003491D01*
X007331Y003491D02*
X012331Y003491D01*
X012831Y003026D02*
X012831Y002226D01*
X012829Y002182D01*
X012823Y002139D01*
X012814Y002097D01*
X012801Y002055D01*
X012784Y002015D01*
X012764Y001976D01*
X012741Y001939D01*
X012714Y001905D01*
X012685Y001872D01*
X012652Y001843D01*
X012618Y001816D01*
X012581Y001793D01*
X012542Y001773D01*
X012502Y001756D01*
X012460Y001743D01*
X012418Y001734D01*
X012375Y001728D01*
X012331Y001726D01*
X012256Y001726D01*
X012256Y001146D01*
X012256Y001145D02*
X012257Y001106D01*
X012253Y001068D01*
X012246Y001029D01*
X012235Y000992D01*
X012220Y000956D01*
X012202Y000921D01*
X012180Y000888D01*
X012156Y000858D01*
X012128Y000830D01*
X012098Y000805D01*
X012066Y000783D01*
X012032Y000764D01*
X011996Y000749D01*
X011959Y000738D01*
X011920Y000730D01*
X011881Y000726D01*
X007801Y000726D01*
X007797Y000976D02*
X007791Y000976D01*
X007767Y000978D01*
X007719Y000996D01*
X007681Y001031D01*
X007660Y001078D01*
X007656Y001103D01*
X007656Y001501D01*
X007657Y001501D01*
X007766Y001501D01*
X007806Y001517D01*
X007806Y001330D01*
X007815Y001320D01*
X007893Y001186D01*
X008044Y001099D01*
X008218Y001099D01*
X008241Y001112D01*
X008301Y001112D01*
X008301Y001081D01*
X008264Y001081D01*
X008219Y001062D01*
X008081Y001062D01*
X008081Y000976D01*
X007847Y000976D01*
X007843Y000977D01*
X007797Y000976D01*
X007744Y000986D02*
X008081Y000986D01*
X008081Y001035D02*
X007679Y001035D01*
X007659Y001083D02*
X008301Y001083D01*
X007986Y001132D02*
X007656Y001132D01*
X007656Y001180D02*
X007902Y001180D01*
X007893Y001186D02*
X007893Y001186D01*
X007893Y001186D01*
X007868Y001229D02*
X007656Y001229D01*
X007656Y001277D02*
X007840Y001277D01*
X007809Y001326D02*
X007656Y001326D01*
X007656Y001374D02*
X007806Y001374D01*
X007806Y001423D02*
X007656Y001423D01*
X007656Y001471D02*
X007806Y001471D01*
X007406Y001095D02*
X007409Y001058D01*
X007416Y001021D01*
X007426Y000985D01*
X007440Y000950D01*
X007457Y000917D01*
X007478Y000885D01*
X007501Y000855D01*
X007527Y000828D01*
X007556Y000804D01*
X007587Y000783D01*
X007620Y000765D01*
X007654Y000750D01*
X007690Y000738D01*
X007727Y000730D01*
X007764Y000726D01*
X007802Y000725D01*
X007406Y001096D02*
X007406Y001726D01*
X007331Y001726D01*
X007287Y001728D01*
X007244Y001734D01*
X007202Y001743D01*
X007160Y001756D01*
X007120Y001773D01*
X007081Y001793D01*
X007044Y001816D01*
X007010Y001843D01*
X006977Y001872D01*
X006948Y001905D01*
X006921Y001939D01*
X006898Y001976D01*
X006878Y002015D01*
X006861Y002055D01*
X006848Y002097D01*
X006839Y002139D01*
X006833Y002182D01*
X006831Y002226D01*
X008242Y002771D02*
X008271Y002788D01*
X008283Y002793D01*
X008305Y002807D01*
X008369Y002844D01*
X008414Y002923D01*
X008416Y002925D01*
X008417Y002927D01*
X008446Y002979D01*
X008456Y002988D01*
X008456Y003241D01*
X011207Y003241D01*
X011207Y002988D01*
X011217Y002979D01*
X011246Y002927D01*
X011247Y002925D01*
X011249Y002923D01*
X011294Y002844D01*
X011294Y002844D01*
X011294Y002844D01*
X011358Y002807D01*
X011380Y002793D01*
X011392Y002788D01*
X011421Y002771D01*
X008964Y002771D01*
X008945Y002784D01*
X008881Y002771D01*
X008242Y002771D01*
X008259Y002781D02*
X008931Y002781D01*
X008949Y002781D02*
X011404Y002781D01*
X011320Y002829D02*
X008343Y002829D01*
X008369Y002844D02*
X008369Y002844D01*
X008369Y002844D01*
X008388Y002878D02*
X011275Y002878D01*
X011247Y002926D02*
X008416Y002926D01*
X008444Y002975D02*
X011219Y002975D01*
X011207Y003023D02*
X008456Y003023D01*
X008456Y003072D02*
X011207Y003072D01*
X011207Y003120D02*
X008456Y003120D01*
X008456Y003169D02*
X011207Y003169D01*
X011207Y003217D02*
X008456Y003217D01*
X012331Y003491D02*
X012374Y003490D01*
X012416Y003486D01*
X012457Y003479D01*
X012498Y003468D01*
X012537Y003453D01*
X012575Y003435D01*
X012612Y003413D01*
X012646Y003389D01*
X012678Y003362D01*
X012708Y003332D01*
X012734Y003299D01*
X012758Y003265D01*
X012779Y003228D01*
X012797Y003190D01*
X012811Y003150D01*
X012821Y003109D01*
X012828Y003068D01*
X012832Y003026D01*
D11*
X010941Y001087D03*
X010149Y001087D03*
X009124Y001087D03*
X008719Y001087D03*
X008326Y001087D03*
D12*
X011529Y000912D03*
D13*
X011434Y001424D02*
X011436Y001406D01*
X011441Y001389D01*
X011449Y001372D01*
X011460Y001358D01*
X011473Y001346D01*
X011488Y001336D01*
X011505Y001330D01*
X011523Y001326D01*
X011541Y001326D01*
X011559Y001330D01*
X011576Y001336D01*
X011591Y001346D01*
X011604Y001358D01*
X011615Y001372D01*
X011623Y001389D01*
X011628Y001406D01*
X011630Y001424D01*
X011630Y001677D01*
X011628Y001695D01*
X011623Y001712D01*
X011615Y001729D01*
X011604Y001743D01*
X011591Y001755D01*
X011576Y001765D01*
X011559Y001771D01*
X011541Y001775D01*
X011523Y001775D01*
X011505Y001771D01*
X011488Y001765D01*
X011473Y001755D01*
X011460Y001743D01*
X011449Y001729D01*
X011441Y001712D01*
X011436Y001695D01*
X011434Y001677D01*
X011434Y001424D01*
X012028Y002386D02*
X012028Y002830D01*
X012033Y002861D01*
X012042Y002891D01*
X012054Y002920D01*
X012069Y002947D01*
X012088Y002972D01*
X012110Y002995D01*
X012134Y003015D01*
X012160Y003031D01*
X012188Y003045D01*
X012218Y003055D01*
X012249Y003061D01*
X012280Y003064D01*
X012311Y003063D01*
X012342Y003058D01*
X012372Y003049D01*
X012401Y003037D01*
X012428Y003022D01*
X012453Y003003D01*
X012476Y002981D01*
X012496Y002957D01*
X012512Y002931D01*
X012526Y002903D01*
X012536Y002873D01*
X012542Y002842D01*
X012545Y002811D01*
X012544Y002780D01*
X012545Y002780D02*
X012545Y002336D01*
X012544Y002336D02*
X012539Y002305D01*
X012530Y002275D01*
X012518Y002246D01*
X012503Y002219D01*
X012484Y002194D01*
X012462Y002171D01*
X012438Y002151D01*
X012412Y002135D01*
X012384Y002121D01*
X012354Y002111D01*
X012323Y002105D01*
X012292Y002102D01*
X012261Y002103D01*
X012230Y002108D01*
X012200Y002117D01*
X012171Y002129D01*
X012144Y002144D01*
X012119Y002163D01*
X012096Y002185D01*
X012076Y002209D01*
X012060Y002235D01*
X012046Y002263D01*
X012036Y002293D01*
X012030Y002324D01*
X012027Y002355D01*
X012028Y002386D01*
X011630Y003082D02*
X011630Y003306D01*
X011628Y003324D01*
X011623Y003341D01*
X011615Y003358D01*
X011604Y003372D01*
X011591Y003384D01*
X011576Y003394D01*
X011559Y003400D01*
X011541Y003404D01*
X011523Y003404D01*
X011505Y003400D01*
X011488Y003394D01*
X011473Y003384D01*
X011460Y003372D01*
X011449Y003358D01*
X011441Y003341D01*
X011436Y003324D01*
X011434Y003306D01*
X011434Y003082D01*
X011436Y003064D01*
X011441Y003047D01*
X011449Y003030D01*
X011460Y003016D01*
X011473Y003004D01*
X011488Y002994D01*
X011505Y002988D01*
X011523Y002984D01*
X011541Y002984D01*
X011559Y002988D01*
X011576Y002994D01*
X011591Y003004D01*
X011604Y003016D01*
X011615Y003030D01*
X011623Y003047D01*
X011628Y003064D01*
X011630Y003082D01*
X008229Y003082D02*
X008229Y003306D01*
X008227Y003324D01*
X008222Y003341D01*
X008214Y003358D01*
X008203Y003372D01*
X008190Y003384D01*
X008175Y003394D01*
X008158Y003400D01*
X008140Y003404D01*
X008122Y003404D01*
X008104Y003400D01*
X008087Y003394D01*
X008072Y003384D01*
X008059Y003372D01*
X008048Y003358D01*
X008040Y003341D01*
X008035Y003324D01*
X008033Y003306D01*
X008033Y003082D01*
X008035Y003064D01*
X008040Y003047D01*
X008048Y003030D01*
X008059Y003016D01*
X008072Y003004D01*
X008087Y002994D01*
X008104Y002988D01*
X008122Y002984D01*
X008140Y002984D01*
X008158Y002988D01*
X008175Y002994D01*
X008190Y003004D01*
X008203Y003016D01*
X008214Y003030D01*
X008222Y003047D01*
X008227Y003064D01*
X008229Y003082D01*
X007635Y002830D02*
X007635Y002386D01*
X007634Y002386D02*
X007632Y002355D01*
X007627Y002324D01*
X007617Y002295D01*
X007604Y002266D01*
X007588Y002239D01*
X007569Y002215D01*
X007547Y002193D01*
X007523Y002174D01*
X007496Y002158D01*
X007467Y002145D01*
X007438Y002135D01*
X007407Y002130D01*
X007376Y002128D01*
X007345Y002130D01*
X007314Y002135D01*
X007285Y002145D01*
X007256Y002158D01*
X007229Y002174D01*
X007205Y002193D01*
X007183Y002215D01*
X007164Y002239D01*
X007148Y002266D01*
X007135Y002295D01*
X007125Y002324D01*
X007120Y002355D01*
X007118Y002386D01*
X007118Y002830D01*
X007120Y002861D01*
X007125Y002892D01*
X007135Y002921D01*
X007148Y002950D01*
X007164Y002977D01*
X007183Y003001D01*
X007205Y003023D01*
X007229Y003042D01*
X007256Y003058D01*
X007285Y003071D01*
X007314Y003081D01*
X007345Y003086D01*
X007376Y003088D01*
X007407Y003086D01*
X007438Y003081D01*
X007467Y003071D01*
X007496Y003058D01*
X007523Y003042D01*
X007547Y003023D01*
X007569Y003001D01*
X007588Y002977D01*
X007604Y002950D01*
X007617Y002921D01*
X007627Y002892D01*
X007632Y002861D01*
X007634Y002830D01*
X008033Y001677D02*
X008033Y001424D01*
X008035Y001406D01*
X008040Y001389D01*
X008048Y001372D01*
X008059Y001358D01*
X008072Y001346D01*
X008087Y001336D01*
X008104Y001330D01*
X008122Y001326D01*
X008140Y001326D01*
X008158Y001330D01*
X008175Y001336D01*
X008190Y001346D01*
X008203Y001358D01*
X008214Y001372D01*
X008222Y001389D01*
X008227Y001406D01*
X008229Y001424D01*
X008229Y001677D01*
X008227Y001695D01*
X008222Y001712D01*
X008214Y001729D01*
X008203Y001743D01*
X008190Y001755D01*
X008175Y001765D01*
X008158Y001771D01*
X008140Y001775D01*
X008122Y001775D01*
X008104Y001771D01*
X008087Y001765D01*
X008072Y001755D01*
X008059Y001743D01*
X008048Y001729D01*
X008040Y001712D01*
X008035Y001695D01*
X008033Y001677D01*
D14*
X007376Y002356D02*
X007376Y002856D01*
X012286Y002856D02*
X012286Y002356D01*
D15*
X010841Y001759D02*
X010843Y001781D01*
X010849Y001803D01*
X010858Y001823D01*
X010871Y001841D01*
X010887Y001857D01*
X010905Y001870D01*
X010925Y001879D01*
X010947Y001885D01*
X010969Y001887D01*
X010991Y001885D01*
X011013Y001879D01*
X011033Y001870D01*
X011051Y001857D01*
X011067Y001841D01*
X011080Y001823D01*
X011089Y001803D01*
X011095Y001781D01*
X011097Y001759D01*
X011095Y001737D01*
X011089Y001715D01*
X011080Y001695D01*
X011067Y001677D01*
X011051Y001661D01*
X011033Y001648D01*
X011013Y001639D01*
X010991Y001633D01*
X010969Y001631D01*
X010947Y001633D01*
X010925Y001639D01*
X010905Y001648D01*
X010887Y001661D01*
X010871Y001677D01*
X010858Y001695D01*
X010849Y001715D01*
X010843Y001737D01*
X010841Y001759D01*
X008566Y001759D02*
X008568Y001781D01*
X008574Y001803D01*
X008583Y001823D01*
X008596Y001841D01*
X008612Y001857D01*
X008630Y001870D01*
X008650Y001879D01*
X008672Y001885D01*
X008694Y001887D01*
X008716Y001885D01*
X008738Y001879D01*
X008758Y001870D01*
X008776Y001857D01*
X008792Y001841D01*
X008805Y001823D01*
X008814Y001803D01*
X008820Y001781D01*
X008822Y001759D01*
X008820Y001737D01*
X008814Y001715D01*
X008805Y001695D01*
X008792Y001677D01*
X008776Y001661D01*
X008758Y001648D01*
X008738Y001639D01*
X008716Y001633D01*
X008694Y001631D01*
X008672Y001633D01*
X008650Y001639D01*
X008630Y001648D01*
X008612Y001661D01*
X008596Y001677D01*
X008583Y001695D01*
X008574Y001715D01*
X008568Y001737D01*
X008566Y001759D01*
D16*
X008131Y001668D02*
X008131Y001432D01*
X008131Y003078D02*
X008131Y003314D01*
X011532Y003314D02*
X011532Y003078D01*
D17*
X011131Y002926D03*
X010781Y002926D03*
X010226Y002126D03*
X009831Y002126D03*
X009611Y001856D03*
X009276Y002301D03*
X008931Y002301D03*
X008881Y002926D03*
X008531Y002926D03*
D18*
X008131Y001550D02*
X008326Y001355D01*
X008326Y001087D01*
D19*
X008719Y001087D02*
X008719Y001413D01*
X009124Y001318D02*
X009124Y001087D01*
X009124Y001168D01*
X009124Y001318D02*
X009281Y001476D01*
X009281Y002296D01*
X009276Y002301D01*
X008931Y002301D02*
X008931Y001976D01*
X008946Y001939D01*
X008957Y001902D01*
X008964Y001863D01*
X008968Y001824D01*
X008969Y001785D01*
X008965Y001746D01*
X008959Y001707D01*
X008948Y001669D01*
X008934Y001633D01*
X008917Y001597D01*
X008897Y001564D01*
X008873Y001532D01*
X008847Y001503D01*
X008818Y001476D01*
X008787Y001452D01*
X008754Y001431D01*
X008719Y001414D01*
X009611Y001856D02*
X010149Y001318D01*
X010149Y001087D01*
X011201Y001166D02*
X011201Y002176D01*
X011201Y002175D02*
X011184Y002208D01*
X011163Y002239D01*
X011140Y002268D01*
X011114Y002294D01*
X011085Y002318D01*
X011055Y002338D01*
X011022Y002356D01*
X010988Y002370D01*
X010953Y002381D01*
X010916Y002388D01*
X010879Y002392D01*
X010843Y002392D01*
X010806Y002388D01*
X010769Y002381D01*
X010734Y002370D01*
X010700Y002356D01*
X010667Y002338D01*
X010637Y002318D01*
X010608Y002294D01*
X010582Y002268D01*
X010559Y002239D01*
X010538Y002208D01*
X010521Y002175D01*
X010521Y002176D02*
X010521Y002076D01*
X010510Y002043D01*
X010495Y002012D01*
X010477Y001982D01*
X010456Y001955D01*
X010432Y001930D01*
X010405Y001908D01*
X010375Y001889D01*
X010344Y001874D01*
X010312Y001862D01*
X010278Y001854D01*
X010243Y001850D01*
X010209Y001850D01*
X010174Y001854D01*
X010140Y001862D01*
X010108Y001874D01*
X010077Y001889D01*
X010047Y001908D01*
X010020Y001930D01*
X009996Y001955D01*
X009975Y001982D01*
X009957Y002012D01*
X009942Y002043D01*
X009931Y002076D01*
X009831Y002126D01*
X011201Y001166D02*
X011390Y000887D01*
X011529Y000912D01*
D20*
X011951Y001776D03*
X007711Y001776D03*
D21*
X007731Y001826D01*
X008271Y002536D01*
X008301Y002566D01*
X008901Y002566D01*
X008931Y002546D01*
X008931Y002301D01*
X008901Y002566D02*
X010231Y002566D01*
X010226Y002561D01*
X010226Y002126D01*
X010231Y002566D02*
X011411Y002566D01*
X011441Y002536D01*
X011931Y001826D01*
X011951Y001776D01*
D22*
X010856Y002101D03*
D23*
X010941Y001087D02*
X010906Y001022D01*
D24*
X010941Y001087D02*
X010941Y001416D01*
X010821Y001486D01*
X010793Y001504D01*
X010767Y001526D01*
X010743Y001550D01*
X010723Y001577D01*
X010705Y001605D01*
X010690Y001636D01*
X010680Y001668D01*
X010672Y001701D01*
X010668Y001734D01*
X010668Y001768D01*
X010672Y001801D01*
X010680Y001834D01*
X010690Y001866D01*
X010705Y001897D01*
X010723Y001925D01*
X010743Y001952D01*
X010767Y001976D01*
X010793Y001998D01*
X010821Y002016D01*
X010856Y002101D01*
D25*
X010941Y000756D03*
X011346Y000756D03*
X010149Y000756D03*
X009124Y000756D03*
X008719Y000756D03*
X008329Y000756D03*
M02*
