%
M48
M72
T01C0.0100
T02C0.0120
T03C0.0160
T04C0.0200
T05C0.0256
%
T01
X7711Y1776
X11951Y1776
T02
X11131Y2926
X10781Y2926
X10226Y2126
X9831Y2126
X9611Y1856
X9276Y2301
X8931Y2301
X8881Y2926
X8531Y2926
T03
X10856Y2101
T04
X10941Y756
X11346Y756
X10149Y756
X9124Y756
X8719Y756
X8329Y756
T05
X8694Y1759
X10969Y1759
M30
