G75*
G70*
%OFA0B0*%
%FSLAX24Y24*%
%IPPOS*%
%LPD*%
%AMOC8*
5,1,8,0,0,1.08239X$1,22.5*
%
%ADD10C,0.0060*%
%ADD11C,0.0050*%
%ADD12C,0.0004*%
%ADD13C,0.0000*%
%ADD14C,0.0100*%
D10*
X008391Y003131D02*
X008441Y003081D01*
X008591Y003081D01*
X008591Y003381D01*
X008441Y003381D01*
X008391Y003331D01*
X008391Y003281D01*
X008441Y003231D01*
X008591Y003231D01*
X008723Y003181D02*
X008723Y003131D01*
X008773Y003081D01*
X008873Y003081D01*
X008923Y003131D01*
X008873Y003231D02*
X008773Y003231D01*
X008723Y003181D01*
X008723Y003331D02*
X008773Y003381D01*
X008873Y003381D01*
X008923Y003331D01*
X008923Y003281D01*
X008873Y003231D01*
X009054Y003131D02*
X009054Y003381D01*
X009254Y003381D02*
X009254Y003131D01*
X009204Y003081D01*
X009104Y003081D01*
X009054Y003131D01*
X009159Y002981D02*
X009109Y002931D01*
X009109Y002731D01*
X009159Y002681D01*
X009259Y002681D01*
X009310Y002731D01*
X009310Y002931D01*
X009259Y002981D01*
X009159Y002981D01*
X009430Y002981D02*
X009531Y002981D01*
X009480Y002981D02*
X009480Y002681D01*
X009430Y002681D02*
X009531Y002681D01*
X009662Y002731D02*
X009662Y002931D01*
X009712Y002981D01*
X009862Y002981D01*
X009862Y002681D01*
X009712Y002681D01*
X009662Y002731D01*
X009817Y002492D02*
X009817Y002192D01*
X009917Y002192D02*
X009717Y002192D01*
X009586Y002192D02*
X009386Y002492D01*
X009254Y002442D02*
X009204Y002492D01*
X009104Y002492D01*
X009054Y002442D01*
X009254Y002242D01*
X009204Y002192D01*
X009104Y002192D01*
X009054Y002242D01*
X009054Y002442D01*
X008923Y002342D02*
X008773Y002342D01*
X008723Y002292D01*
X008723Y002242D01*
X008773Y002192D01*
X008873Y002192D01*
X008923Y002242D01*
X008923Y002342D01*
X008823Y002442D01*
X008723Y002492D01*
X009254Y002442D02*
X009254Y002242D01*
X009353Y001992D02*
X009453Y001992D01*
X009503Y001942D01*
X009353Y001992D02*
X009303Y001942D01*
X009303Y001892D01*
X009503Y001692D01*
X009303Y001692D01*
X009619Y001692D02*
X009669Y001692D01*
X009669Y001742D01*
X009619Y001742D01*
X009619Y001692D01*
X009800Y001692D02*
X010000Y001692D01*
X009900Y001692D02*
X009900Y001992D01*
X010000Y001892D01*
X010131Y001792D02*
X010131Y001992D01*
X010131Y001792D02*
X010232Y001692D01*
X010332Y001792D01*
X010332Y001992D01*
X010249Y002192D02*
X010049Y002192D01*
X010249Y002192D02*
X010049Y002392D01*
X010049Y002442D01*
X010099Y002492D01*
X010199Y002492D01*
X010249Y002442D01*
X010380Y002442D02*
X010580Y002242D01*
X010530Y002192D01*
X010430Y002192D01*
X010380Y002242D01*
X010380Y002442D01*
X010430Y002492D01*
X010530Y002492D01*
X010580Y002442D01*
X010580Y002242D01*
X010712Y002192D02*
X010912Y002192D01*
X010712Y002392D01*
X010712Y002442D01*
X010762Y002492D01*
X010862Y002492D01*
X010912Y002442D01*
X010525Y002681D02*
X010525Y002881D01*
X010425Y002981D01*
X010325Y002881D01*
X010325Y002681D01*
X010193Y002731D02*
X010143Y002681D01*
X010043Y002681D01*
X009993Y002731D01*
X009993Y002981D01*
X009917Y003081D02*
X009917Y003381D01*
X009767Y003381D01*
X009717Y003331D01*
X009717Y003231D01*
X009767Y003181D01*
X009917Y003181D01*
X010049Y003181D02*
X010049Y003131D01*
X010099Y003081D01*
X010199Y003081D01*
X010249Y003131D01*
X010199Y003231D02*
X010099Y003231D01*
X010049Y003181D01*
X010049Y003331D02*
X010099Y003381D01*
X010199Y003381D01*
X010249Y003331D01*
X010249Y003281D01*
X010199Y003231D01*
X010380Y003231D02*
X010580Y003231D01*
X010580Y003281D02*
X010480Y003381D01*
X010380Y003281D01*
X010380Y003081D01*
X010193Y002981D02*
X010193Y002731D01*
X010325Y002831D02*
X010525Y002831D01*
X010580Y003081D02*
X010580Y003281D01*
X010712Y003281D02*
X010762Y003231D01*
X010912Y003231D01*
X011043Y003231D02*
X011043Y003131D01*
X011093Y003081D01*
X011193Y003081D01*
X011243Y003131D01*
X011243Y003331D01*
X011193Y003381D01*
X011093Y003381D01*
X011043Y003331D01*
X011043Y003231D02*
X011143Y003231D01*
X010912Y003081D02*
X010762Y003081D01*
X010712Y003131D01*
X010712Y003181D01*
X010762Y003231D01*
X010712Y003281D02*
X010712Y003331D01*
X010762Y003381D01*
X010912Y003381D01*
X010912Y003081D01*
X009917Y002392D02*
X009817Y002492D01*
X008441Y003231D02*
X008391Y003181D01*
X008391Y003131D01*
D11*
X006831Y003026D02*
X006831Y002226D01*
X006833Y002182D01*
X006839Y002139D01*
X006848Y002097D01*
X006861Y002055D01*
X006878Y002015D01*
X006898Y001976D01*
X006921Y001939D01*
X006948Y001905D01*
X006977Y001872D01*
X007010Y001843D01*
X007044Y001816D01*
X007081Y001793D01*
X007120Y001773D01*
X007160Y001756D01*
X007202Y001743D01*
X007244Y001734D01*
X007287Y001728D01*
X007331Y001726D01*
X007606Y001726D01*
X007606Y001096D01*
X007606Y001095D02*
X007609Y001058D01*
X007616Y001021D01*
X007626Y000985D01*
X007640Y000950D01*
X007657Y000917D01*
X007678Y000885D01*
X007701Y000855D01*
X007727Y000828D01*
X007756Y000804D01*
X007787Y000783D01*
X007820Y000765D01*
X007854Y000750D01*
X007890Y000738D01*
X007927Y000730D01*
X007964Y000726D01*
X008002Y000725D01*
X008001Y000726D02*
X011681Y000726D01*
X011720Y000730D01*
X011759Y000738D01*
X011796Y000749D01*
X011832Y000764D01*
X011866Y000783D01*
X011898Y000805D01*
X011928Y000830D01*
X011956Y000858D01*
X011980Y000888D01*
X012002Y000921D01*
X012020Y000956D01*
X012035Y000992D01*
X012046Y001029D01*
X012053Y001068D01*
X012057Y001106D01*
X012056Y001145D01*
X012056Y001146D02*
X012056Y001726D01*
X012331Y001726D01*
X012375Y001728D01*
X012418Y001734D01*
X012460Y001743D01*
X012502Y001756D01*
X012542Y001773D01*
X012581Y001793D01*
X012618Y001816D01*
X012652Y001843D01*
X012685Y001872D01*
X012714Y001905D01*
X012741Y001939D01*
X012764Y001976D01*
X012784Y002015D01*
X012801Y002055D01*
X012814Y002097D01*
X012823Y002139D01*
X012829Y002182D01*
X012831Y002226D01*
X012831Y003026D01*
X012832Y003026D02*
X012828Y003068D01*
X012821Y003109D01*
X012811Y003150D01*
X012797Y003190D01*
X012779Y003228D01*
X012758Y003265D01*
X012734Y003299D01*
X012708Y003332D01*
X012678Y003362D01*
X012646Y003389D01*
X012612Y003413D01*
X012575Y003435D01*
X012537Y003453D01*
X012498Y003468D01*
X012457Y003479D01*
X012416Y003486D01*
X012374Y003490D01*
X012331Y003491D01*
X007331Y003491D01*
X007332Y003491D02*
X007289Y003490D01*
X007247Y003486D01*
X007206Y003479D01*
X007165Y003468D01*
X007126Y003453D01*
X007088Y003435D01*
X007051Y003413D01*
X007017Y003389D01*
X006985Y003362D01*
X006955Y003332D01*
X006929Y003299D01*
X006905Y003265D01*
X006884Y003228D01*
X006866Y003190D01*
X006852Y003150D01*
X006842Y003109D01*
X006835Y003068D01*
X006831Y003026D01*
D12*
X007118Y002830D02*
X007118Y002386D01*
X007120Y002355D01*
X007125Y002324D01*
X007135Y002295D01*
X007148Y002266D01*
X007164Y002239D01*
X007183Y002215D01*
X007205Y002193D01*
X007229Y002174D01*
X007256Y002158D01*
X007285Y002145D01*
X007314Y002135D01*
X007345Y002130D01*
X007376Y002128D01*
X007407Y002130D01*
X007438Y002135D01*
X007467Y002145D01*
X007496Y002158D01*
X007523Y002174D01*
X007547Y002193D01*
X007569Y002215D01*
X007588Y002239D01*
X007604Y002266D01*
X007617Y002295D01*
X007627Y002324D01*
X007632Y002355D01*
X007634Y002386D01*
X007635Y002386D02*
X007635Y002830D01*
X007634Y002830D02*
X007632Y002861D01*
X007627Y002892D01*
X007617Y002921D01*
X007604Y002950D01*
X007588Y002977D01*
X007569Y003001D01*
X007547Y003023D01*
X007523Y003042D01*
X007496Y003058D01*
X007467Y003071D01*
X007438Y003081D01*
X007407Y003086D01*
X007376Y003088D01*
X007345Y003086D01*
X007314Y003081D01*
X007285Y003071D01*
X007256Y003058D01*
X007229Y003042D01*
X007205Y003023D01*
X007183Y003001D01*
X007164Y002977D01*
X007148Y002950D01*
X007135Y002921D01*
X007125Y002892D01*
X007120Y002861D01*
X007118Y002830D01*
X008043Y003092D02*
X008043Y003296D01*
X008045Y003314D01*
X008051Y003332D01*
X008060Y003348D01*
X008072Y003361D01*
X008087Y003372D01*
X008104Y003380D01*
X008122Y003384D01*
X008140Y003384D01*
X008158Y003380D01*
X008175Y003372D01*
X008190Y003361D01*
X008202Y003348D01*
X008211Y003332D01*
X008217Y003314D01*
X008219Y003296D01*
X008219Y003092D01*
X008217Y003074D01*
X008211Y003056D01*
X008202Y003040D01*
X008190Y003027D01*
X008175Y003016D01*
X008158Y003008D01*
X008140Y003004D01*
X008122Y003004D01*
X008104Y003008D01*
X008087Y003016D01*
X008072Y003027D01*
X008060Y003040D01*
X008051Y003056D01*
X008045Y003074D01*
X008043Y003092D01*
X008043Y001667D02*
X008043Y001434D01*
X008045Y001416D01*
X008051Y001398D01*
X008060Y001382D01*
X008072Y001369D01*
X008087Y001358D01*
X008104Y001350D01*
X008122Y001346D01*
X008140Y001346D01*
X008158Y001350D01*
X008175Y001358D01*
X008190Y001369D01*
X008202Y001382D01*
X008211Y001398D01*
X008217Y001416D01*
X008219Y001434D01*
X008219Y001667D01*
X008217Y001685D01*
X008211Y001703D01*
X008202Y001719D01*
X008190Y001732D01*
X008175Y001743D01*
X008158Y001751D01*
X008140Y001755D01*
X008122Y001755D01*
X008104Y001751D01*
X008087Y001743D01*
X008072Y001732D01*
X008060Y001719D01*
X008051Y001703D01*
X008045Y001685D01*
X008043Y001667D01*
X011444Y001667D02*
X011444Y001434D01*
X011446Y001416D01*
X011452Y001398D01*
X011461Y001382D01*
X011473Y001369D01*
X011488Y001358D01*
X011505Y001350D01*
X011523Y001346D01*
X011541Y001346D01*
X011559Y001350D01*
X011576Y001358D01*
X011591Y001369D01*
X011603Y001382D01*
X011612Y001398D01*
X011618Y001416D01*
X011620Y001434D01*
X011620Y001667D01*
X011618Y001685D01*
X011612Y001703D01*
X011603Y001719D01*
X011591Y001732D01*
X011576Y001743D01*
X011559Y001751D01*
X011541Y001755D01*
X011523Y001755D01*
X011505Y001751D01*
X011488Y001743D01*
X011473Y001732D01*
X011461Y001719D01*
X011452Y001703D01*
X011446Y001685D01*
X011444Y001667D01*
X012028Y002386D02*
X012028Y002830D01*
X012033Y002861D01*
X012042Y002891D01*
X012054Y002920D01*
X012069Y002947D01*
X012088Y002972D01*
X012110Y002995D01*
X012134Y003015D01*
X012160Y003031D01*
X012188Y003045D01*
X012218Y003055D01*
X012249Y003061D01*
X012280Y003064D01*
X012311Y003063D01*
X012342Y003058D01*
X012372Y003049D01*
X012401Y003037D01*
X012428Y003022D01*
X012453Y003003D01*
X012476Y002981D01*
X012496Y002957D01*
X012512Y002931D01*
X012526Y002903D01*
X012536Y002873D01*
X012542Y002842D01*
X012545Y002811D01*
X012544Y002780D01*
X012545Y002780D02*
X012545Y002336D01*
X012544Y002336D02*
X012539Y002305D01*
X012530Y002275D01*
X012518Y002246D01*
X012503Y002219D01*
X012484Y002194D01*
X012462Y002171D01*
X012438Y002151D01*
X012412Y002135D01*
X012384Y002121D01*
X012354Y002111D01*
X012323Y002105D01*
X012292Y002102D01*
X012261Y002103D01*
X012230Y002108D01*
X012200Y002117D01*
X012171Y002129D01*
X012144Y002144D01*
X012119Y002163D01*
X012096Y002185D01*
X012076Y002209D01*
X012060Y002235D01*
X012046Y002263D01*
X012036Y002293D01*
X012030Y002324D01*
X012027Y002355D01*
X012028Y002386D01*
X011620Y003092D02*
X011620Y003296D01*
X011618Y003314D01*
X011612Y003332D01*
X011603Y003348D01*
X011591Y003361D01*
X011576Y003372D01*
X011559Y003380D01*
X011541Y003384D01*
X011523Y003384D01*
X011505Y003380D01*
X011488Y003372D01*
X011473Y003361D01*
X011461Y003348D01*
X011452Y003332D01*
X011446Y003314D01*
X011444Y003296D01*
X011444Y003092D01*
X011446Y003074D01*
X011452Y003056D01*
X011461Y003040D01*
X011473Y003027D01*
X011488Y003016D01*
X011505Y003008D01*
X011523Y003004D01*
X011541Y003004D01*
X011559Y003008D01*
X011576Y003016D01*
X011591Y003027D01*
X011603Y003040D01*
X011612Y003056D01*
X011618Y003074D01*
X011620Y003092D01*
D13*
X010844Y001759D02*
X010846Y001781D01*
X010852Y001802D01*
X010861Y001821D01*
X010873Y001839D01*
X010889Y001855D01*
X010906Y001867D01*
X010926Y001876D01*
X010947Y001882D01*
X010969Y001884D01*
X010991Y001882D01*
X011012Y001876D01*
X011031Y001867D01*
X011049Y001855D01*
X011065Y001839D01*
X011077Y001821D01*
X011086Y001802D01*
X011092Y001781D01*
X011094Y001759D01*
X011092Y001737D01*
X011086Y001716D01*
X011077Y001697D01*
X011065Y001679D01*
X011049Y001663D01*
X011032Y001651D01*
X011012Y001642D01*
X010991Y001636D01*
X010969Y001634D01*
X010947Y001636D01*
X010926Y001642D01*
X010906Y001651D01*
X010889Y001663D01*
X010873Y001679D01*
X010861Y001696D01*
X010852Y001716D01*
X010846Y001737D01*
X010844Y001759D01*
X008569Y001759D02*
X008571Y001781D01*
X008577Y001802D01*
X008586Y001821D01*
X008598Y001839D01*
X008614Y001855D01*
X008631Y001867D01*
X008651Y001876D01*
X008672Y001882D01*
X008694Y001884D01*
X008716Y001882D01*
X008737Y001876D01*
X008756Y001867D01*
X008774Y001855D01*
X008790Y001839D01*
X008802Y001821D01*
X008811Y001802D01*
X008817Y001781D01*
X008819Y001759D01*
X008817Y001737D01*
X008811Y001716D01*
X008802Y001697D01*
X008790Y001679D01*
X008774Y001663D01*
X008757Y001651D01*
X008737Y001642D01*
X008716Y001636D01*
X008694Y001634D01*
X008672Y001636D01*
X008651Y001642D01*
X008631Y001651D01*
X008614Y001663D01*
X008598Y001679D01*
X008586Y001696D01*
X008577Y001716D01*
X008571Y001737D01*
X008569Y001759D01*
D14*
X011334Y001677D02*
X011334Y001424D01*
X011336Y001397D01*
X011341Y001371D01*
X011350Y001345D01*
X011363Y001321D01*
X011378Y001299D01*
X011397Y001279D01*
X011418Y001262D01*
X011441Y001248D01*
X011466Y001237D01*
X011492Y001230D01*
X011518Y001226D01*
X011546Y001226D01*
X011572Y001230D01*
X011598Y001237D01*
X011623Y001248D01*
X011646Y001262D01*
X011667Y001279D01*
X011686Y001299D01*
X011701Y001321D01*
X011714Y001345D01*
X011723Y001371D01*
X011728Y001397D01*
X011730Y001424D01*
X011730Y001677D01*
X011728Y001704D01*
X011723Y001730D01*
X011714Y001756D01*
X011701Y001780D01*
X011686Y001802D01*
X011667Y001822D01*
X011646Y001839D01*
X011623Y001853D01*
X011598Y001864D01*
X011572Y001871D01*
X011546Y001875D01*
X011518Y001875D01*
X011492Y001871D01*
X011466Y001864D01*
X011441Y001853D01*
X011418Y001839D01*
X011397Y001822D01*
X011378Y001802D01*
X011363Y001780D01*
X011350Y001756D01*
X011341Y001730D01*
X011336Y001704D01*
X011334Y001677D01*
M02*
