G75*
G70*
%OFA0B0*%
%FSLAX24Y24*%
%IPPOS*%
%LPD*%
%AMOC8*
5,1,8,0,0,1.08239X$1,22.5*
%
%ADD10C,0.0050*%
%ADD11C,0.0004*%
%ADD12C,0.0900*%
%ADD13R,0.0118X0.0500*%
%ADD14R,0.0236X0.0500*%
%ADD15C,0.0000*%
%ADD16C,0.0394*%
%ADD17C,0.0240*%
%ADD18C,0.0200*%
%ADD19C,0.0100*%
%ADD20C,0.0280*%
%ADD21C,0.0140*%
%ADD22C,0.0320*%
D10*
X006831Y002226D02*
X006831Y003026D01*
X006835Y003068D01*
X006842Y003109D01*
X006852Y003150D01*
X006866Y003190D01*
X006884Y003228D01*
X006905Y003265D01*
X006929Y003299D01*
X006955Y003332D01*
X006985Y003362D01*
X007017Y003389D01*
X007051Y003413D01*
X007088Y003435D01*
X007126Y003453D01*
X007165Y003468D01*
X007206Y003479D01*
X007247Y003486D01*
X007289Y003490D01*
X007332Y003491D01*
X007331Y003491D02*
X012331Y003491D01*
X012831Y003026D02*
X012831Y002226D01*
X012829Y002182D01*
X012823Y002139D01*
X012814Y002097D01*
X012801Y002055D01*
X012784Y002015D01*
X012764Y001976D01*
X012741Y001939D01*
X012714Y001905D01*
X012685Y001872D01*
X012652Y001843D01*
X012618Y001816D01*
X012581Y001793D01*
X012542Y001773D01*
X012502Y001756D01*
X012460Y001743D01*
X012418Y001734D01*
X012375Y001728D01*
X012331Y001726D01*
X012056Y001726D01*
X012056Y001146D01*
X012056Y001145D02*
X012057Y001106D01*
X012053Y001068D01*
X012046Y001029D01*
X012035Y000992D01*
X012020Y000956D01*
X012002Y000921D01*
X011980Y000888D01*
X011956Y000858D01*
X011928Y000830D01*
X011898Y000805D01*
X011866Y000783D01*
X011832Y000764D01*
X011796Y000749D01*
X011759Y000738D01*
X011720Y000730D01*
X011681Y000726D01*
X008001Y000726D01*
X008002Y000725D02*
X007964Y000726D01*
X007927Y000730D01*
X007890Y000738D01*
X007854Y000750D01*
X007820Y000765D01*
X007787Y000783D01*
X007756Y000804D01*
X007727Y000828D01*
X007701Y000855D01*
X007678Y000885D01*
X007657Y000917D01*
X007640Y000950D01*
X007626Y000985D01*
X007616Y001021D01*
X007609Y001058D01*
X007606Y001095D01*
X007606Y001096D02*
X007606Y001726D01*
X007331Y001726D01*
X007760Y001926D02*
X007815Y001981D01*
X007868Y002055D01*
X007909Y002135D01*
X007937Y002221D01*
X007951Y002311D01*
X007951Y002581D01*
X007862Y002581D01*
X007862Y002631D01*
X007951Y002631D01*
X007951Y002811D01*
X007978Y002793D01*
X008037Y002768D01*
X008099Y002756D01*
X008106Y002756D01*
X008106Y002777D01*
X008156Y002777D01*
X008156Y002756D01*
X008162Y002756D01*
X008225Y002768D01*
X008283Y002793D01*
X008336Y002828D01*
X008381Y002873D01*
X008416Y002925D01*
X008440Y002984D01*
X008442Y002995D01*
X008446Y002998D01*
X008446Y003012D01*
X008453Y003046D01*
X008453Y003171D01*
X008446Y003171D01*
X008446Y003221D01*
X008453Y003221D01*
X008453Y003241D01*
X011210Y003241D01*
X011210Y003221D01*
X011217Y003221D01*
X011217Y003171D01*
X011210Y003171D01*
X011210Y003046D01*
X011217Y003012D01*
X011217Y002998D01*
X011221Y002995D01*
X011223Y002984D01*
X011247Y002925D01*
X011282Y002873D01*
X011327Y002828D01*
X011380Y002793D01*
X011438Y002768D01*
X011501Y002756D01*
X011507Y002756D01*
X011507Y002777D01*
X011557Y002777D01*
X011557Y002756D01*
X011564Y002756D01*
X011626Y002768D01*
X011685Y002793D01*
X011711Y002811D01*
X011711Y002631D01*
X011801Y002631D01*
X011801Y002581D01*
X011711Y002581D01*
X011711Y002311D01*
X011726Y002221D01*
X011754Y002135D01*
X011795Y002055D01*
X011848Y001981D01*
X011903Y001926D01*
X011845Y001868D01*
X011821Y001812D01*
X011818Y001821D01*
X011782Y001874D01*
X011769Y001887D01*
X011763Y001898D01*
X011752Y001904D01*
X011737Y001919D01*
X011685Y001954D01*
X011626Y001978D01*
X011622Y001979D01*
X011617Y001982D01*
X011606Y001982D01*
X011564Y001990D01*
X011557Y001990D01*
X011557Y001982D01*
X011507Y001982D01*
X011507Y001990D01*
X011501Y001990D01*
X011459Y001982D01*
X011448Y001982D01*
X011442Y001979D01*
X011438Y001978D01*
X011380Y001954D01*
X011327Y001919D01*
X011312Y001904D01*
X011302Y001898D01*
X011295Y001887D01*
X011266Y001957D01*
X011168Y002056D01*
X011161Y002058D01*
X011161Y002162D01*
X011115Y002274D01*
X011058Y002331D01*
X010977Y002526D01*
X010766Y002737D01*
X010491Y002851D01*
X008884Y002851D01*
X008843Y002870D01*
X008790Y002851D01*
X008734Y002851D01*
X008702Y002819D01*
X008623Y002790D01*
X008623Y002790D01*
X008439Y002587D01*
X008439Y002587D01*
X008373Y002321D01*
X008439Y002055D01*
X008466Y002026D01*
X008397Y001957D01*
X008368Y001887D01*
X008368Y001887D01*
X008361Y001898D01*
X008351Y001904D01*
X008336Y001919D01*
X008283Y001954D01*
X008225Y001978D01*
X008221Y001979D01*
X008215Y001982D01*
X008204Y001982D01*
X008162Y001990D01*
X008156Y001990D01*
X008156Y001982D01*
X008106Y001982D01*
X008106Y001990D01*
X008099Y001990D01*
X008057Y001982D01*
X008046Y001982D01*
X008041Y001979D01*
X008037Y001978D01*
X007978Y001954D01*
X007926Y001919D01*
X007911Y001904D01*
X007900Y001898D01*
X007894Y001887D01*
X007881Y001874D01*
X007845Y001821D01*
X007842Y001812D01*
X007818Y001868D01*
X007760Y001926D01*
X007778Y001908D02*
X007915Y001908D01*
X007900Y001898D02*
X007900Y001898D01*
X007871Y001859D02*
X007822Y001859D01*
X007790Y001956D02*
X007985Y001956D01*
X007867Y002053D02*
X008441Y002053D01*
X008439Y002055D02*
X008439Y002055D01*
X008428Y002102D02*
X007892Y002102D01*
X007914Y002150D02*
X008416Y002150D01*
X008404Y002199D02*
X007930Y002199D01*
X007941Y002247D02*
X008391Y002247D01*
X008379Y002296D02*
X007949Y002296D01*
X007951Y002344D02*
X008379Y002344D01*
X008373Y002321D02*
X008373Y002321D01*
X008391Y002393D02*
X007951Y002393D01*
X007951Y002441D02*
X008403Y002441D01*
X008415Y002490D02*
X007951Y002490D01*
X007951Y002538D02*
X008427Y002538D01*
X008440Y002587D02*
X007862Y002587D01*
X007951Y002635D02*
X008483Y002635D01*
X008527Y002684D02*
X007951Y002684D01*
X007951Y002732D02*
X008571Y002732D01*
X008614Y002781D02*
X008255Y002781D01*
X008337Y002829D02*
X008713Y002829D01*
X008416Y002926D02*
X011247Y002926D01*
X011227Y002975D02*
X008436Y002975D01*
X008448Y003023D02*
X011215Y003023D01*
X011210Y003072D02*
X008453Y003072D01*
X008453Y003120D02*
X011210Y003120D01*
X011210Y003169D02*
X008453Y003169D01*
X008446Y003217D02*
X011217Y003217D01*
X011279Y002878D02*
X008384Y002878D01*
X008007Y002781D02*
X007951Y002781D01*
X007331Y001726D02*
X007287Y001728D01*
X007244Y001734D01*
X007202Y001743D01*
X007160Y001756D01*
X007120Y001773D01*
X007081Y001793D01*
X007044Y001816D01*
X007010Y001843D01*
X006977Y001872D01*
X006948Y001905D01*
X006921Y001939D01*
X006898Y001976D01*
X006878Y002015D01*
X006861Y002055D01*
X006848Y002097D01*
X006839Y002139D01*
X006833Y002182D01*
X006831Y002226D01*
X007832Y002005D02*
X008445Y002005D01*
X008397Y001956D02*
X008276Y001956D01*
X008215Y001982D02*
X008215Y001982D01*
X008346Y001908D02*
X008377Y001908D01*
X008361Y001898D02*
X008361Y001898D01*
X009731Y001576D02*
X009841Y001686D01*
X009931Y001686D01*
X010992Y002490D02*
X011711Y002490D01*
X011711Y002538D02*
X010965Y002538D01*
X010977Y002526D02*
X010977Y002526D01*
X010916Y002587D02*
X011801Y002587D01*
X011711Y002635D02*
X010868Y002635D01*
X010819Y002684D02*
X011711Y002684D01*
X011711Y002732D02*
X010771Y002732D01*
X010766Y002737D02*
X010766Y002737D01*
X010660Y002781D02*
X011408Y002781D01*
X011326Y002829D02*
X010543Y002829D01*
X011012Y002441D02*
X011711Y002441D01*
X011711Y002393D02*
X011032Y002393D01*
X011052Y002344D02*
X011711Y002344D01*
X011714Y002296D02*
X011093Y002296D01*
X011126Y002247D02*
X011722Y002247D01*
X011733Y002199D02*
X011146Y002199D01*
X011161Y002150D02*
X011749Y002150D01*
X011771Y002102D02*
X011161Y002102D01*
X011170Y002053D02*
X011796Y002053D01*
X011831Y002005D02*
X011218Y002005D01*
X011266Y001956D02*
X011387Y001956D01*
X011317Y001908D02*
X011286Y001908D01*
X011302Y001898D02*
X011302Y001898D01*
X011295Y001887D02*
X011295Y001887D01*
X011678Y001956D02*
X011873Y001956D01*
X011885Y001908D02*
X011748Y001908D01*
X011763Y001898D02*
X011763Y001898D01*
X011763Y001898D01*
X011792Y001859D02*
X011841Y001859D01*
X011711Y002781D02*
X011656Y002781D01*
X012331Y003491D02*
X012374Y003490D01*
X012416Y003486D01*
X012457Y003479D01*
X012498Y003468D01*
X012537Y003453D01*
X012575Y003435D01*
X012612Y003413D01*
X012646Y003389D01*
X012678Y003362D01*
X012708Y003332D01*
X012734Y003299D01*
X012758Y003265D01*
X012779Y003228D01*
X012797Y003190D01*
X012811Y003150D01*
X012821Y003109D01*
X012828Y003068D01*
X012832Y003026D01*
D11*
X012545Y002780D02*
X012545Y002336D01*
X012544Y002336D02*
X012539Y002305D01*
X012530Y002275D01*
X012518Y002246D01*
X012503Y002219D01*
X012484Y002194D01*
X012462Y002171D01*
X012438Y002151D01*
X012412Y002135D01*
X012384Y002121D01*
X012354Y002111D01*
X012323Y002105D01*
X012292Y002102D01*
X012261Y002103D01*
X012230Y002108D01*
X012200Y002117D01*
X012171Y002129D01*
X012144Y002144D01*
X012119Y002163D01*
X012096Y002185D01*
X012076Y002209D01*
X012060Y002235D01*
X012046Y002263D01*
X012036Y002293D01*
X012030Y002324D01*
X012027Y002355D01*
X012028Y002386D01*
X012028Y002830D01*
X012033Y002861D01*
X012042Y002891D01*
X012054Y002920D01*
X012069Y002947D01*
X012088Y002972D01*
X012110Y002995D01*
X012134Y003015D01*
X012160Y003031D01*
X012188Y003045D01*
X012218Y003055D01*
X012249Y003061D01*
X012280Y003064D01*
X012311Y003063D01*
X012342Y003058D01*
X012372Y003049D01*
X012401Y003037D01*
X012428Y003022D01*
X012453Y003003D01*
X012476Y002981D01*
X012496Y002957D01*
X012512Y002931D01*
X012526Y002903D01*
X012536Y002873D01*
X012542Y002842D01*
X012545Y002811D01*
X012544Y002780D01*
X011620Y003092D02*
X011620Y003296D01*
X011618Y003314D01*
X011612Y003332D01*
X011603Y003348D01*
X011591Y003361D01*
X011576Y003372D01*
X011559Y003380D01*
X011541Y003384D01*
X011523Y003384D01*
X011505Y003380D01*
X011488Y003372D01*
X011473Y003361D01*
X011461Y003348D01*
X011452Y003332D01*
X011446Y003314D01*
X011444Y003296D01*
X011444Y003092D01*
X011446Y003074D01*
X011452Y003056D01*
X011461Y003040D01*
X011473Y003027D01*
X011488Y003016D01*
X011505Y003008D01*
X011523Y003004D01*
X011541Y003004D01*
X011559Y003008D01*
X011576Y003016D01*
X011591Y003027D01*
X011603Y003040D01*
X011612Y003056D01*
X011618Y003074D01*
X011620Y003092D01*
X011620Y001667D02*
X011620Y001434D01*
X011618Y001416D01*
X011612Y001398D01*
X011603Y001382D01*
X011591Y001369D01*
X011576Y001358D01*
X011559Y001350D01*
X011541Y001346D01*
X011523Y001346D01*
X011505Y001350D01*
X011488Y001358D01*
X011473Y001369D01*
X011461Y001382D01*
X011452Y001398D01*
X011446Y001416D01*
X011444Y001434D01*
X011444Y001667D01*
X011446Y001685D01*
X011452Y001703D01*
X011461Y001719D01*
X011473Y001732D01*
X011488Y001743D01*
X011505Y001751D01*
X011523Y001755D01*
X011541Y001755D01*
X011559Y001751D01*
X011576Y001743D01*
X011591Y001732D01*
X011603Y001719D01*
X011612Y001703D01*
X011618Y001685D01*
X011620Y001667D01*
X008219Y001667D02*
X008219Y001434D01*
X008217Y001416D01*
X008211Y001398D01*
X008202Y001382D01*
X008190Y001369D01*
X008175Y001358D01*
X008158Y001350D01*
X008140Y001346D01*
X008122Y001346D01*
X008104Y001350D01*
X008087Y001358D01*
X008072Y001369D01*
X008060Y001382D01*
X008051Y001398D01*
X008045Y001416D01*
X008043Y001434D01*
X008043Y001667D01*
X008045Y001685D01*
X008051Y001703D01*
X008060Y001719D01*
X008072Y001732D01*
X008087Y001743D01*
X008104Y001751D01*
X008122Y001755D01*
X008140Y001755D01*
X008158Y001751D01*
X008175Y001743D01*
X008190Y001732D01*
X008202Y001719D01*
X008211Y001703D01*
X008217Y001685D01*
X008219Y001667D01*
X007635Y002386D02*
X007635Y002830D01*
X007634Y002830D02*
X007632Y002861D01*
X007627Y002892D01*
X007617Y002921D01*
X007604Y002950D01*
X007588Y002977D01*
X007569Y003001D01*
X007547Y003023D01*
X007523Y003042D01*
X007496Y003058D01*
X007467Y003071D01*
X007438Y003081D01*
X007407Y003086D01*
X007376Y003088D01*
X007345Y003086D01*
X007314Y003081D01*
X007285Y003071D01*
X007256Y003058D01*
X007229Y003042D01*
X007205Y003023D01*
X007183Y003001D01*
X007164Y002977D01*
X007148Y002950D01*
X007135Y002921D01*
X007125Y002892D01*
X007120Y002861D01*
X007118Y002830D01*
X007118Y002386D01*
X007120Y002355D01*
X007125Y002324D01*
X007135Y002295D01*
X007148Y002266D01*
X007164Y002239D01*
X007183Y002215D01*
X007205Y002193D01*
X007229Y002174D01*
X007256Y002158D01*
X007285Y002145D01*
X007314Y002135D01*
X007345Y002130D01*
X007376Y002128D01*
X007407Y002130D01*
X007438Y002135D01*
X007467Y002145D01*
X007496Y002158D01*
X007523Y002174D01*
X007547Y002193D01*
X007569Y002215D01*
X007588Y002239D01*
X007604Y002266D01*
X007617Y002295D01*
X007627Y002324D01*
X007632Y002355D01*
X007634Y002386D01*
X008043Y003092D02*
X008043Y003296D01*
X008045Y003314D01*
X008051Y003332D01*
X008060Y003348D01*
X008072Y003361D01*
X008087Y003372D01*
X008104Y003380D01*
X008122Y003384D01*
X008140Y003384D01*
X008158Y003380D01*
X008175Y003372D01*
X008190Y003361D01*
X008202Y003348D01*
X008211Y003332D01*
X008217Y003314D01*
X008219Y003296D01*
X008219Y003092D01*
X008217Y003074D01*
X008211Y003056D01*
X008202Y003040D01*
X008190Y003027D01*
X008175Y003016D01*
X008158Y003008D01*
X008140Y003004D01*
X008122Y003004D01*
X008104Y003008D01*
X008087Y003016D01*
X008072Y003027D01*
X008060Y003040D01*
X008051Y003056D01*
X008045Y003074D01*
X008043Y003092D01*
D12*
X007376Y002856D02*
X007376Y002356D01*
X012286Y002356D02*
X012286Y002856D01*
D13*
X010520Y001274D03*
X010324Y001274D03*
X010127Y001274D03*
X009930Y001274D03*
X009733Y001274D03*
X009536Y001274D03*
X009339Y001274D03*
X009143Y001274D03*
D14*
X008867Y001274D03*
X008562Y001274D03*
X010796Y001274D03*
X011101Y001274D03*
D15*
X010844Y001759D02*
X010846Y001781D01*
X010852Y001802D01*
X010861Y001821D01*
X010873Y001839D01*
X010889Y001855D01*
X010906Y001867D01*
X010926Y001876D01*
X010947Y001882D01*
X010969Y001884D01*
X010991Y001882D01*
X011012Y001876D01*
X011031Y001867D01*
X011049Y001855D01*
X011065Y001839D01*
X011077Y001821D01*
X011086Y001802D01*
X011092Y001781D01*
X011094Y001759D01*
X011092Y001737D01*
X011086Y001716D01*
X011077Y001697D01*
X011065Y001679D01*
X011049Y001663D01*
X011032Y001651D01*
X011012Y001642D01*
X010991Y001636D01*
X010969Y001634D01*
X010947Y001636D01*
X010926Y001642D01*
X010906Y001651D01*
X010889Y001663D01*
X010873Y001679D01*
X010861Y001696D01*
X010852Y001716D01*
X010846Y001737D01*
X010844Y001759D01*
X008569Y001759D02*
X008571Y001781D01*
X008577Y001802D01*
X008586Y001821D01*
X008598Y001839D01*
X008614Y001855D01*
X008631Y001867D01*
X008651Y001876D01*
X008672Y001882D01*
X008694Y001884D01*
X008716Y001882D01*
X008737Y001876D01*
X008756Y001867D01*
X008774Y001855D01*
X008790Y001839D01*
X008802Y001821D01*
X008811Y001802D01*
X008817Y001781D01*
X008819Y001759D01*
X008817Y001737D01*
X008811Y001716D01*
X008802Y001697D01*
X008790Y001679D01*
X008774Y001663D01*
X008757Y001651D01*
X008737Y001642D01*
X008716Y001636D01*
X008694Y001634D01*
X008672Y001636D01*
X008651Y001642D01*
X008631Y001651D01*
X008614Y001663D01*
X008598Y001679D01*
X008586Y001696D01*
X008577Y001716D01*
X008571Y001737D01*
X008569Y001759D01*
D16*
X008131Y001668D02*
X008131Y001432D01*
X008131Y003078D02*
X008131Y003314D01*
X011532Y003314D02*
X011532Y003078D01*
X011532Y001668D02*
X011532Y001432D01*
D17*
X010226Y002126D03*
X009831Y002126D03*
X009611Y001856D03*
X009276Y002301D03*
X008931Y002301D03*
X008881Y002926D03*
X008531Y002926D03*
X010781Y002926D03*
X011131Y002926D03*
D18*
X011462Y003126D02*
X011478Y003128D01*
X011492Y003133D01*
X011506Y003141D01*
X011517Y003152D01*
X011525Y003166D01*
X011530Y003180D01*
X011532Y003196D01*
X008131Y003196D01*
X008131Y002626D01*
X008111Y002606D01*
X007376Y002606D01*
X008131Y002626D02*
X008131Y001550D01*
X008285Y001550D01*
X008562Y001274D01*
X008201Y003126D02*
X008131Y003196D01*
X011101Y001274D02*
X011378Y001550D01*
X011532Y001550D01*
X011532Y002626D01*
X011552Y002606D01*
X012286Y002606D01*
X011532Y002626D02*
X011532Y003196D01*
D19*
X010520Y002212D02*
X010520Y001274D01*
X010324Y001274D02*
X010324Y002029D01*
X010226Y002126D01*
X010331Y002401D02*
X010357Y002397D01*
X010383Y002390D01*
X010407Y002380D01*
X010430Y002366D01*
X010450Y002350D01*
X010469Y002331D01*
X010485Y002311D01*
X010499Y002288D01*
X010509Y002264D01*
X010516Y002238D01*
X010520Y002212D01*
X010331Y002401D02*
X009376Y002401D01*
X009276Y002301D01*
X009339Y002238D01*
X009339Y001274D01*
X009143Y001274D02*
X009143Y002040D01*
X008931Y002251D01*
X008931Y002301D01*
X009531Y001776D02*
X009611Y001856D01*
X009531Y001776D02*
X009531Y001081D01*
X009536Y001076D01*
X009536Y000976D01*
X009536Y001076D02*
X009536Y001274D01*
X009731Y001274D02*
X009731Y001576D01*
X009931Y001686D02*
X009931Y002026D01*
X009831Y002126D01*
X010131Y001576D02*
X010131Y001274D01*
X010127Y001274D01*
X009930Y001274D02*
X009930Y000976D01*
X009910Y000952D01*
X009888Y000931D01*
X009864Y000913D01*
X009837Y000898D01*
X009808Y000886D01*
X009779Y000878D01*
X009748Y000874D01*
X009718Y000874D01*
X009687Y000878D01*
X009658Y000886D01*
X009629Y000898D01*
X009602Y000913D01*
X009578Y000931D01*
X009556Y000952D01*
X009536Y000976D01*
X009731Y001274D02*
X009733Y001274D01*
X009731Y001576D02*
X009749Y001599D01*
X009770Y001619D01*
X009793Y001637D01*
X009818Y001652D01*
X009845Y001664D01*
X009873Y001673D01*
X009902Y001678D01*
X009931Y001680D01*
X009960Y001678D01*
X009989Y001673D01*
X010017Y001664D01*
X010044Y001652D01*
X010069Y001637D01*
X010092Y001619D01*
X010113Y001599D01*
X010131Y001576D01*
D20*
X010856Y002101D03*
D21*
X010831Y002016D01*
X010832Y002016D02*
X010805Y001991D01*
X010782Y001963D01*
X010762Y001933D01*
X010745Y001900D01*
X010731Y001866D01*
X010722Y001831D01*
X010716Y001795D01*
X010714Y001759D01*
X010716Y001723D01*
X010722Y001687D01*
X010731Y001652D01*
X010745Y001618D01*
X010762Y001586D01*
X010761Y001586D02*
X010806Y001501D01*
X010796Y001274D01*
X010856Y002101D02*
X010854Y002144D01*
X010849Y002186D01*
X010840Y002227D01*
X010828Y002268D01*
X010813Y002308D01*
X010794Y002346D01*
X010772Y002383D01*
X010747Y002417D01*
X010720Y002450D01*
X010690Y002480D01*
X010657Y002507D01*
X010623Y002532D01*
X010586Y002554D01*
X010548Y002573D01*
X010508Y002588D01*
X010467Y002600D01*
X010426Y002609D01*
X010384Y002614D01*
X010341Y002616D01*
X008831Y002616D01*
X008832Y002616D02*
X008800Y002602D01*
X008769Y002585D01*
X008741Y002565D01*
X008715Y002541D01*
X008692Y002515D01*
X008672Y002487D01*
X008655Y002456D01*
X008642Y002424D01*
X008633Y002390D01*
X008627Y002356D01*
X008625Y002321D01*
X008627Y002286D01*
X008633Y002252D01*
X008642Y002218D01*
X008655Y002186D01*
X008672Y002155D01*
X008692Y002127D01*
X008715Y002101D01*
X008741Y002077D01*
X008769Y002057D01*
X008800Y002040D01*
X008832Y002026D01*
X008831Y002026D02*
X008841Y002016D01*
X008865Y001990D01*
X008887Y001962D01*
X008905Y001933D01*
X008921Y001901D01*
X008933Y001868D01*
X008942Y001835D01*
X008948Y001800D01*
X008950Y001765D01*
X008949Y001730D01*
X008944Y001695D01*
X008935Y001661D01*
X008924Y001628D01*
X008909Y001596D01*
X008891Y001566D01*
X008841Y001486D01*
X008831Y001426D01*
X008831Y001326D01*
X008891Y001326D01*
X008847Y001281D01*
X008867Y001274D01*
D22*
X008719Y000756D03*
X008329Y000756D03*
X009124Y000756D03*
X010149Y000756D03*
X010941Y000756D03*
X011346Y000756D03*
M02*
